<?xml version="1.0" encoding="utf-8"?>
<!-- Generator: Adobe Illustrator 23.1.0, SVG Export Plug-In . SVG Version: 6.00 Build 0)  -->
<svg version="1.1" id="Capa_1" xmlns="http://www.w3.org/2000/svg" xmlns:xlink="http://www.w3.org/1999/xlink" x="0px" y="0px"
	 viewBox="0 0 50 50" style="enable-background:new 0 0 50 50;" xml:space="preserve">
<style type="text/css">
	.st0{fill:none;stroke:#F1F2F6;stroke-width:3.3126;stroke-linecap:round;stroke-linejoin:round;stroke-miterlimit:10;}
</style>
<symbol  id="Nuevo_símbolo" viewBox="-61.3 -53.7 122.6 107.4">
	<g>
		<path class="st0" d="M45.3-13l4.4,50c0.2,2.8-1.9,5.2-4.7,5.2H12.6c-2.1,0-3.7,1.8-3.6,3.9l0.2,2.2c0.2,2.1-1.5,3.9-3.6,3.9h-33
			c-1.8,0-3.4-1.4-3.6-3.3l-0.3-3.4c-0.2-1.8-1.7-3.3-3.6-3.3h-0.5c-2.5,0-4.5-1.9-4.7-4.3l-0.2-2.8"/>
		<line class="st0" x1="-26.8" y1="47.1" x2="4.9" y2="47.1"/>
		<line class="st0" x1="-27.2" y1="42.2" x2="4.5" y2="42.2"/>
	</g>
	<path class="st0" d="M-8-23.4h-35.4c-1.6,0-3,1.1-3.4,2.6l-12.6,47.1c-0.6,2.3,1.1,4.5,3.4,4.5h18.8c2.2,0,4-1.4,4.6-3.5l1.2-4.3
		c0.4-1.6,1.8-2.6,3.4-2.6h56.2c2.2,0,4-1.4,4.6-3.5l1.2-4.3"/>
	<polyline class="st0" points="41.6,-16.1 43.6,-23.4 41.6,-23.4 	"/>
	<line class="st0" x1="-12.5" y1="-4" x2="-18.7" y2="-4"/>
	<line class="st0" x1="-20.3" y1="2.2" x2="-11.4" y2="2.2"/>
	<polyline class="st0" points="-8.7,8.3 -28.7,8.3 -23.8,-10.1 -13.3,-10.1 	"/>
	<polyline class="st0" points="-28,26.9 -27.3,34.4 42.5,34.4 40.4,10.3 	"/>
	<circle class="st0" cx="15.2" cy="-7.7" r="24.1"/>
	<circle class="st0" cx="15.2" cy="-7.7" r="17.8"/>
	<polyline class="st0" points="34.9,-22.1 42.6,-29.9 37.4,-35 29.7,-27.3 	"/>
	
		<rect x="41.9" y="-51.1" transform="matrix(0.7071 -0.7071 0.7071 0.7071 42.3991 21.99)" class="st0" width="11.7" height="21.9"/>
	<line class="st0" x1="51.6" y1="-35.7" x2="43.6" y2="-43.7"/>
	<line class="st0" x1="47.9" y1="-32" x2="39.9" y2="-40"/>
</symbol>
<use xlink:href="#Nuevo_símbolo"  width="122.6" height="107.4" x="-61.3" y="-53.7" transform="matrix(0.4005 0 0 -0.4005 25 25)" style="overflow:visible;"/>
</svg>
