<?xml version="1.0" encoding="utf-8"?>
<!-- Generator: Adobe Illustrator 23.1.0, SVG Export Plug-In . SVG Version: 6.00 Build 0)  -->
<svg version="1.1" id="Capa_1" xmlns="http://www.w3.org/2000/svg" xmlns:xlink="http://www.w3.org/1999/xlink" x="0px" y="0px"
	 viewBox="0 0 50 50" style="enable-background:new 0 0 50 50;" xml:space="preserve">
<style type="text/css">
	.st0{fill:none;stroke:#F1F2F6;stroke-width:3.3126;stroke-linecap:round;stroke-linejoin:round;stroke-miterlimit:10;}
</style>
<symbol  id="Nuevo_símbolo_1" viewBox="-61.3 -59.8 122.6 119.6">
	<g>
		<path class="st0" d="M-11.4,24.2h-13c-2,0-3.7-1.5-3.9-3.6l-0.3-3.7c-0.2-2-1.9-3.6-3.9-3.6H-33c-2.7,0-4.9-2.1-5.2-4.7l-0.3-3"/>
		<path class="st0" d="M54.8-46.8l4.8,54.5c0.3,3-2.1,5.6-5.2,5.6H19.2c-2.3,0-4.1,2-3.9,4.2l0.2,2.3c0.2,2.3-1.6,4.2-3.9,4.2H1.8"
			/>
		<line class="st0" x1="-23.8" y1="18.8" x2="10.8" y2="18.8"/>
		<line class="st0" x1="-24.3" y1="13.4" x2="10.3" y2="13.4"/>
	</g>
	<path class="st0" d="M-25.1-10.4h61.3c2.3,0,4.4-1.6,5-3.8L53-58.1H-42c-1.8,0-3.3,1.2-3.8,2.9L-59.5-3.8c-0.7,2.5,1.2,4.9,3.8,4.9
		h20.6c2.3,0,4.4-1.6,5-3.8l1.3-4.7C-28.4-9.2-26.9-10.4-25.1-10.4z"/>
	<line class="st0" x1="5.6" y1="-37" x2="-8.4" y2="-37"/>
	<line class="st0" x1="-10.2" y1="-30.3" x2="3.8" y2="-30.3"/>
	<polygon class="st0" points="21.3,-43.7 15.9,-23.6 -25.9,-23.6 -20.5,-43.7 	"/>
	<polyline class="st0" points="-25.1,-3.2 -24.4,5 51.8,5 49.2,-24.9 	"/>
	<path class="st0" d="M2.6,43.3c5,9.2,11.7,14.8,19.1,14.8c12.7,0,23.5-16.8,26.8-39.8"/>
	<path class="st0" d="M14.7,52.4c7.8-3.2,18.5-16.5,19-34.1"/>
	<path class="st0" d="M-12.2,43.1c4.9,9.1,11.5,14.8,18.7,15.1h15.2"/>
	<polyline class="st0" points="2.6,43 12.8,43 -4.6,22.7 -21.9,43 -12.7,43 	"/>
</symbol>
<use xlink:href="#Nuevo_símbolo_1"  width="122.6" height="119.6" x="-61.3" y="-59.8" transform="matrix(0.3995 0 0 -0.3995 25 25)" style="overflow:visible;"/>
</svg>
