<?xml version="1.0" encoding="utf-8"?>
<!-- Generator: Adobe Illustrator 23.1.0, SVG Export Plug-In . SVG Version: 6.00 Build 0)  -->
<svg version="1.1" id="Capa_1" xmlns="http://www.w3.org/2000/svg" xmlns:xlink="http://www.w3.org/1999/xlink" x="0px" y="0px"
	 viewBox="0 0 128 109" style="enable-background:new 0 0 128 109;" xml:space="preserve">
<style type="text/css">
	.st0{fill:url(#SVGID_1_);}
	.st1{fill:url(#SVGID_2_);}
	.st2{fill:url(#SVGID_3_);}
	.st3{fill:url(#SVGID_4_);}
</style>
<g>
	<g>
		<linearGradient id="SVGID_1_" gradientUnits="userSpaceOnUse" x1="35.9283" y1="50.3296" x2="14.4376" y2="50.3296">
			<stop  offset="0" style="stop-color:#5494FB"/>
			<stop  offset="0.5565" style="stop-color:#72BBFC"/>
			<stop  offset="1" style="stop-color:#87D5FC"/>
		</linearGradient>
		<path class="st0" d="M28.1,40.2v6.6v0.6h0.6h6.6v5.8h-6.6h-0.6v0.6v6.6h-5.8v-6.6v-0.6h-0.6h-6.6v-5.8h6.6h0.6v-0.6v-6.6H28.1
			 M28.7,39.6h-7v7.2h-7.2v7h7.2v7.2h7v-7.2h7.2v-7h-7.2V39.6L28.7,39.6z"/>
	</g>
	<g>
		<linearGradient id="SVGID_2_" gradientUnits="userSpaceOnUse" x1="84.1702" y1="31.8209" x2="33.8985" y2="31.8209">
			<stop  offset="0" style="stop-color:#5494FB"/>
			<stop  offset="0.5565" style="stop-color:#72BBFC"/>
			<stop  offset="1" style="stop-color:#87D5FC"/>
		</linearGradient>
		<path class="st1" d="M65.8,8.1v15.5v1.4h1.4h15.5v13.5H67.2h-1.4V40v15.5H52.3V40v-1.4h-1.4H35.3V25.1h15.5h1.4v-1.4V8.1H65.8
			 M67.2,6.7H50.8v16.9H33.9V40h16.9V57h16.4V40h16.9V23.6H67.2V6.7L67.2,6.7z"/>
	</g>
	<g>
		<linearGradient id="SVGID_3_" gradientUnits="userSpaceOnUse" x1="48.6492" y1="85.9037" x2="15.9109" y2="85.9037">
			<stop  offset="0" style="stop-color:#5494FB"/>
			<stop  offset="0.5565" style="stop-color:#72BBFC"/>
			<stop  offset="1" style="stop-color:#87D5FC"/>
		</linearGradient>
		<polygon class="st2" points="48.6,80.6 37.6,80.6 37.6,69.5 26.9,69.5 26.9,80.6 15.9,80.6 15.9,91.2 26.9,91.2 26.9,102.3 
			37.6,102.3 37.6,91.2 48.6,91.2 		"/>
	</g>
	<g>
		<g>
			<linearGradient id="SVGID_4_" gradientUnits="userSpaceOnUse" x1="113.5623" y1="73.9519" x2="56.8362" y2="73.9519">
				<stop  offset="0" style="stop-color:#5494FB"/>
				<stop  offset="0.5565" style="stop-color:#72BBFC"/>
				<stop  offset="1" style="stop-color:#87D5FC"/>
			</linearGradient>
			<polygon class="st3" points="113.6,64.7 94.4,64.7 94.4,45.6 76,45.6 76,64.7 56.8,64.7 56.8,83.2 76,83.2 76,102.3 94.4,102.3 
				94.4,83.2 113.6,83.2 			"/>
		</g>
	</g>
</g>
</svg>
