<?xml version="1.0" encoding="utf-8"?>
<!-- Generator: Adobe Illustrator 23.1.0, SVG Export Plug-In . SVG Version: 6.00 Build 0)  -->
<svg version="1.1" id="Layer_1" xmlns="http://www.w3.org/2000/svg" xmlns:xlink="http://www.w3.org/1999/xlink" x="0px" y="0px"
	 viewBox="0 0 330 330" style="enable-background:new 0 0 330 330;" xml:space="preserve">
<style type="text/css">
	.st0{fill:#F9F9F9;}
	.st1{fill:#E96668;}
</style>
<rect x="49.4" y="71.1" class="st0" width="233" height="195.1"/>
<g id="XMLID_28_">
	<path id="XMLID_29_" class="st1" d="M165,0C120.9,0,79.5,17.2,48.3,48.3c-64.3,64.3-64.3,169,0,233.3C79.5,312.8,120.9,330,165,330
		c44.1,0,85.5-17.2,116.7-48.3c64.3-64.3,64.3-169,0-233.3C250.5,17.2,209.1,0,165,0z M239.2,239.2c-2.9,2.9-6.8,4.4-10.6,4.4
		c-3.8,0-7.7-1.5-10.6-4.4l-53-53l-53,53c-2.9,2.9-6.8,4.4-10.6,4.4c-3.8,0-7.7-1.5-10.6-4.4c-5.9-5.9-5.9-15.4,0-21.2l53-53l-53-53
		c-5.9-5.9-5.9-15.4,0-21.2c5.9-5.9,15.4-5.9,21.2,0l53,53l53-53c5.9-5.9,15.4-5.9,21.2,0c5.9,5.9,5.9,15.4,0,21.2l-53,53l53,53
		C245.1,223.9,245.1,233.4,239.2,239.2z"/>
</g>
</svg>
