<?xml version="1.0" encoding="utf-8"?>
<!-- Generator: Adobe Illustrator 23.1.0, SVG Export Plug-In . SVG Version: 6.00 Build 0)  -->
<svg version="1.1" id="Capa_1" xmlns="http://www.w3.org/2000/svg" xmlns:xlink="http://www.w3.org/1999/xlink" x="0px" y="0px"
	 viewBox="0 0 60 60" style="enable-background:new 0 0 60 60;" xml:space="preserve">
<style type="text/css">
	.st0{fill:#F1F2F6;}
</style>
<g>
	<path class="st0" d="M44.3,12.8H2.7C1.2,12.8,0,14,0,15.4v43.8l9.4-9.4h34.9c1.5,0,2.7-1.2,2.7-2.7V15.4C47,14,45.8,12.8,44.3,12.8
		z M11,22.8h12c0.6,0,1,0.4,1,1s-0.4,1-1,1H11c-0.6,0-1-0.4-1-1S10.4,22.8,11,22.8z M36,38.8H11c-0.6,0-1-0.4-1-1s0.4-1,1-1h25
		c0.6,0,1,0.4,1,1S36.6,38.8,36,38.8z M36,31.8H11c-0.6,0-1-0.4-1-1s0.4-1,1-1h25c0.6,0,1,0.4,1,1S36.6,31.8,36,31.8z"/>
	<path class="st0" d="M57.3,0.8H12.7C11.2,0.8,10,2,10,3.4v7.3h34.3c2.6,0,4.7,2.1,4.7,4.7v25.3h1.6H60V3.4C60,2,58.8,0.8,57.3,0.8z
		"/>
</g>
</svg>
