<?xml version="1.0" encoding="utf-8"?>
<!-- Generator: Adobe Illustrator 23.1.0, SVG Export Plug-In . SVG Version: 6.00 Build 0)  -->
<svg version="1.1" id="Capa_1" xmlns="http://www.w3.org/2000/svg" xmlns:xlink="http://www.w3.org/1999/xlink" x="0px" y="0px"
	 viewBox="0 0 572.3 572.3" style="enable-background:new 0 0 572.3 572.3;" xml:space="preserve">
<style type="text/css">
	.st0{fill:#F1F2F6;}
</style>
<g>
	<g>
		<path class="st0" d="M90.8,572.3h390.7c20.7,0,37.6-16.8,37.6-37.6V281.3c0-20.7-16.8-37.6-37.6-37.6h-56.1v74.7
			c22.1,6.6,38.3,27.1,38.3,51.3v40.8h-30.6v-40.8c0-12.7-10.3-23-23-23s-23,10.3-23,23v40.8h-30.6v-40.8
			c0-24.2,16.2-44.7,38.3-51.3v-72.9c-27.9,27.7-66.3,44.8-108.6,44.8c-40.8,0-77.9-15.9-105.5-41.8v81.6
			c19.9,6.5,34.4,25.2,34.4,47.3c0,27.4-22.3,49.7-49.7,49.7s-49.7-22.3-49.7-49.7c0-22.1,14.5-40.8,34.4-47.3v-86.4H90.8
			c-20.7,0-37.6,16.8-37.6,37.6v253.5C53.3,555.5,70.1,572.3,90.8,572.3z"/>
		<path class="st0" d="M192.5,234.6c3.4,3.2,7,6.3,10.7,9.2c23,17.7,51.7,28.3,83,28.3s60-10.6,83-28.3c3.7-2.9,7.3-5.9,10.7-9.2
			c3.1-2.9,6-6,8.8-9.2c20.9-23.9,33.5-55.1,33.5-89.4c0-75.1-60.9-136-136-136c-75.1,0-136,60.9-136,136
			c0,34.2,12.7,65.5,33.5,89.4C186.5,228.6,189.4,231.6,192.5,234.6z"/>
		<path class="st0" d="M146.3,377.4c0,10.5,8.6,19.1,19.1,19.1s19.1-8.6,19.1-19.1c0-5.9-2.7-11.1-6.9-14.6
			c-3.3-2.8-7.5-4.5-12.2-4.5s-8.9,1.7-12.2,4.5C149,366.4,146.3,371.6,146.3,377.4z"/>
	</g>
</g>
</svg>
