<?xml version="1.0" encoding="utf-8"?>
<!-- Generator: Adobe Illustrator 23.1.0, SVG Export Plug-In . SVG Version: 6.00 Build 0)  -->
<svg version="1.1" id="Capa_1" xmlns="http://www.w3.org/2000/svg" xmlns:xlink="http://www.w3.org/1999/xlink" x="0px" y="0px"
	 viewBox="0 0 75 62" style="enable-background:new 0 0 75 62;" xml:space="preserve">
<style type="text/css">
	.st0{fill:none;stroke:#152C54;stroke-width:3.3126;stroke-linecap:round;stroke-linejoin:round;stroke-miterlimit:10;}
</style>
<symbol  id="Nuevo_símbolo" viewBox="-61.3 -49.7 122.6 99.4">
	<g>
		<path class="st0" d="M39.7-14.4c0,1.2-0.1,2.5-0.2,3.7l3.4,3.4l-1.5,6.7l-4.1-0.2c-0.8,2.2-1.8,4.2-3,6l1.4,5.6L31.8,15l-3.2-3.6
			c-1.5,1.1-3.1,1.8-4.8,2.3l-1.1,5.7h-4.8l-1.1-5.7c-1.7-0.5-3.3-1.2-4.8-2.3L8.6,15l-3.9-4.1l1.4-5.6c-1.2-1.8-2.2-3.8-3-6
			l-4.1,0.2l-1.5-6.7l3.4-3.4c-0.1-1.2-0.2-2.4-0.2-3.7c0-1.3,0.1-2.5,0.2-3.7l-3.4-3.4l1.5-6.7L3.1-28c0.8-2.2,1.8-4.2,3-5.9
			l-1.4-5.6l3.9-4.1l3.2,3.6c1.5-1,3.1-1.8,4.8-2.3l1.2-5.7h4.8l1.2,5.7c1.7,0.5,3.3,1.2,4.8,2.3l3.2-3.6l3.9,4.1l-1.4,5.6
			c1.2,1.8,2.2,3.8,3,5.9l4.1-0.2l1.5,6.7L39.5-18C39.6-16.8,39.7-15.6,39.7-14.4z"/>
		<path class="st0" d="M8.6,15H14l2.7-1.3l1.1,5.7h5.3H28l1.7-6.7l2.1,2.4h5.3l3.9-4.1l-1.4-5.6l2.5-5.1l4.5-0.7l1.5-6.7l-3.4-3.4
			c0,0,0.4-3.6,0-7.4l3.4-3.4l-1.5-6.7h-5.3l1.3,0.2c0,0-1.5-3.8-3-5.9l1.4-5.6l-3.9-4.1h-5.3l-3.2,3.6l-0.6-8h-4.8h-5.3l-1.2,5.7
			L14-43.7H8.6"/>
	</g>
	<g>
		<path class="st0" d="M54.8-22.9l4.8,54.5c0.3,3-2.1,5.6-5.2,5.6H19.2c-2.3,0-4.1,2-3.9,4.2l0.2,2.3c0.2,2.3-1.6,4.2-3.9,4.2h-36.1
			c-2,0-3.7-1.5-3.9-3.6l-0.3-3.7c-0.2-2-1.9-3.6-3.9-3.6H-33c-2.7,0-4.9-2.1-5.2-4.7l-0.3-3"/>
		<line class="st0" x1="-23.8" y1="42.7" x2="10.8" y2="42.7"/>
		<line class="st0" x1="-24.3" y1="37.3" x2="10.3" y2="37.3"/>
	</g>
	<path class="st0" d="M-1.8-34.3H-42c-1.8,0-3.3,1.2-3.8,2.9L-59.5,20c-0.7,2.5,1.2,4.9,3.8,4.9h20.6c2.3,0,4.4-1.6,5-3.8l1.3-4.7
		c0.5-1.7,2-2.9,3.8-2.9H0.1"/>
	<polyline class="st0" points="51.3,-28.1 53,-34.3 46.8,-34.3 	"/>
	<line class="st0" x1="-4.6" y1="-13.1" x2="-17.2" y2="-13.1"/>
	<line class="st0" x1="-19.2" y1="-6.4" x2="-7.8" y2="-6.4"/>
	<polyline class="st0" points="-5.5,0.3 -25.9,0.3 -20.5,-19.8 -7.2,-19.8 	"/>
	<polyline class="st0" points="-25.1,20.7 -24.4,28.8 51.8,28.8 49.7,4.5 	"/>
	<ellipse class="st0" cx="20.2" cy="-14.4" rx="15.5" ry="22.7"/>
	<ellipse class="st0" cx="20.2" cy="-14.4" rx="11.1" ry="16.3"/>
</symbol>
<use xlink:href="#Nuevo_símbolo"  width="122.6" height="99.4" x="-61.3" y="-49.7" transform="matrix(0.5711 0 0 -0.5711 37.5 31)" style="overflow:visible;"/>
</svg>
