<?xml version="1.0" encoding="utf-8"?>
<!-- Generator: Adobe Illustrator 23.1.0, SVG Export Plug-In . SVG Version: 6.00 Build 0)  -->
<svg version="1.1" id="Capa_1" xmlns="http://www.w3.org/2000/svg" xmlns:xlink="http://www.w3.org/1999/xlink" x="0px" y="0px"
	 viewBox="0 0 24 24" style="enable-background:new 0 0 24 24;" xml:space="preserve">
<style type="text/css">
	.st0{fill:#292F53;}
</style>
<g id="surface4199682">
	<path class="st0" d="M9,1.1C4.6,1.1,1.1,4.6,1.1,9s3.6,7.9,7.9,7.9c1.9,0,3.6-0.7,5-1.8l5.6,7c0,0,1.2,0.2,2-0.6
		c0.8-0.8,0.6-1.9,0.6-1.9l-7-5.6c1.1-1.4,1.8-3.1,1.8-5C16.9,4.6,13.4,1.1,9,1.1z M9,2.7c3.5,0,6.3,2.8,6.3,6.3s-2.8,6.3-6.3,6.3
		S2.7,12.5,2.7,9S5.5,2.7,9,2.7z"/>
</g>
</svg>
