<?xml version="1.0" encoding="utf-8"?>
<!-- Generator: Adobe Illustrator 23.1.0, SVG Export Plug-In . SVG Version: 6.00 Build 0)  -->
<svg version="1.1" id="Layer_1" xmlns="http://www.w3.org/2000/svg" xmlns:xlink="http://www.w3.org/1999/xlink" x="0px" y="0px"
	 viewBox="0 0 512 512" style="enable-background:new 0 0 512 512;" xml:space="preserve">
<style type="text/css">
	.st0{fill:#1479FF;}
</style>
<g>
	<g>
		<path class="st0" d="M469.6,141.9H42.4C19,141.9,0,160.9,0,184.3v143.4c0,23.4,19,42.4,42.4,42.4h427.2c23.4,0,42.4-19,42.4-42.4
			V184.3C512,160.9,493,141.9,469.6,141.9z M146.5,286.4c-16.8,0-30.4-13.6-30.4-30.4s13.6-30.4,30.4-30.4S177,239.2,177,256
			S163.3,286.4,146.5,286.4z M255.9,286.4c-16.8,0-30.4-13.6-30.4-30.4s13.6-30.4,30.4-30.4s30.4,13.6,30.4,30.4
			S272.7,286.4,255.9,286.4z M405.6,274.2h-58.7c-10,0-18.2-8.1-18.2-18.2c0-10,8.1-18.2,18.2-18.2h58.7c10,0,18.2,8.1,18.2,18.2
			C423.8,266,415.6,274.2,405.6,274.2z"/>
	</g>
</g>
</svg>
