<?xml version="1.0" encoding="utf-8"?>
<!-- Generator: Adobe Illustrator 23.1.0, SVG Export Plug-In . SVG Version: 6.00 Build 0)  -->
<svg version="1.1" id="Capa_1" xmlns="http://www.w3.org/2000/svg" xmlns:xlink="http://www.w3.org/1999/xlink" x="0px" y="0px"
	 viewBox="0 0 753.9 703.8" style="enable-background:new 0 0 753.9 703.8;" xml:space="preserve">
<style type="text/css">
	.st0{fill:#F2F2F2;}
	.st1{fill:#FFFFFF;}
	.st2{opacity:0.3;fill:#5C4FB7;}
	.st3{fill:#E6E6E6;}
	.st4{fill:#5C4FB7;}
</style>
<path class="st0" d="M355.4,5.9l-23.1,12.6L48.1,173.5l-23.1,12.6c-23.3,12.8-31.9,42-19.2,65.3l211.6,387.9
	c12.8,23.3,42,31.9,65.3,19.2l0.1,0l330.2-180.2l0.1,0c23.3-12.8,31.9-42,19.2-65.3L420.7,25.1C408,1.8,378.7-6.8,355.4,5.9z"/>
<path class="st1" d="M362,18l-27.3,14.9L59,183.4l-27.3,14.9C15.1,207.4,9,228.2,18,244.8l211.6,387.9c9.1,16.6,29.9,22.7,46.5,13.7
	l0.1,0l330.2-180.2l0.1,0c16.6-9.1,22.7-29.9,13.7-46.5L408.5,31.7C399.5,15.1,378.7,9,362,18z"/>
<path class="st2" d="M366.6,138.4l-123.2,67.2c-3.9,2.1-8.8,0.7-10.9-3.2s-0.7-8.8,3.2-10.9l0,0l123.2-67.2
	c3.9-2.1,8.8-0.7,10.9,3.2C371.9,131.4,370.5,136.3,366.6,138.4L366.6,138.4z"/>
<path class="st2" d="M408.6,146.3l-152.2,83c-3.9,2.1-8.8,0.7-10.9-3.2s-0.7-8.8,3.2-10.9l0,0l152.2-83c3.9-2.1,8.8-0.7,10.9,3.2
	C413.9,139.4,412.5,144.2,408.6,146.3L408.6,146.3z"/>
<path class="st0" d="M192.8,177.7l-113.5,62c-1.9,1-2.5,3.3-1.5,5.2l48.4,88.6c1,1.9,3.3,2.5,5.2,1.5l113.5-62
	c1.9-1,2.5-3.3,1.5-5.2L198,179.2C197,177.3,194.7,176.6,192.8,177.7z"/>
<path class="st0" d="M427.7,250.9L260.7,342c-3.9,2.1-8.8,0.7-10.9-3.2s-0.7-8.8,3.2-10.9l0,0L420,236.8c3.9-2.1,8.8-0.7,10.9,3.2
	C433,243.9,431.6,248.8,427.7,250.9L427.7,250.9z"/>
<path class="st0" d="M469.7,258.8l-196.1,107c-3.9,2.1-8.8,0.7-10.9-3.2s-0.7-8.8,3.2-10.9l0,0l196.1-107c3.9-2.1,8.8-0.7,10.9,3.2
	C475,251.8,473.6,256.7,469.7,258.8L469.7,258.8z"/>
<circle class="st0" cx="197" cy="382.7" r="34"/>
<path class="st3" d="M705.7,165.7H329.4c-26.6,0-48.1,21.6-48.1,48.1v441.9c0,26.6,21.6,48.1,48.1,48.1h376.3
	c26.6,0,48.1-21.6,48.1-48.1V213.8C753.8,187.3,732.3,165.7,705.7,165.7z"/>
<path class="st1" d="M705.8,179.6H329.4c-18.9,0-34.2,15.4-34.3,34.3v441.9c0,18.9,15.4,34.2,34.3,34.3h376.3
	c18.9,0,34.2-15.4,34.3-34.3V213.8C740,194.9,724.7,179.6,705.8,179.6z"/>
<path class="st4" d="M652.1,287.4H511.8c-4.4,0-8-3.6-8-8c0-4.4,3.6-8,8-8h140.3c4.4,0,8,3.6,8,8
	C660.1,283.8,656.5,287.4,652.1,287.4C652.1,287.4,652.1,287.4,652.1,287.4z"/>
<path class="st4" d="M685.1,314.5H511.8c-4.4,0-8-3.6-8-8c0-4.4,3.6-8,8-8h173.4c4.4,0,8,3.6,8,8
	C693.2,310.9,689.6,314.5,685.1,314.5z"/>
<path class="st3" d="M480.7,238.6H351.4c-2.1,0-3.8,1.7-3.8,3.8v101c0,2.1,1.7,3.8,3.8,3.8h129.4c2.1,0,3.8-1.7,3.8-3.8v-101
	C484.6,240.3,482.9,238.6,480.7,238.6z"/>
<path class="st3" d="M651.9,415.4H461.6c-4.4,0-8-3.6-8-8c0-4.4,3.6-8,8-8h190.3c4.4,0,8,3.6,8,8
	C659.9,411.8,656.3,415.4,651.9,415.4z"/>
<path class="st3" d="M684.9,442.5H461.6c-4.4,0-8-3.6-8-8c0-4.4,3.6-8,8-8h223.4c4.4,0,8,3.6,8,8
	C692.9,438.9,689.4,442.5,684.9,442.5z"/>
<path class="st3" d="M651.9,512.6H461.6c-4.4,0-8-3.6-8-8s3.6-8,8-8c0,0,0,0,0,0h190.3c4.4,0,8,3.6,8,8
	C659.9,509,656.3,512.6,651.9,512.6C651.9,512.6,651.9,512.6,651.9,512.6z"/>
<path class="st3" d="M684.9,539.7H461.6c-4.4,0-8-3.6-8-8c0-4.4,3.6-8,8-8h223.4c4.4,0,8,3.6,8,8
	C692.9,536.1,689.4,539.7,684.9,539.7z"/>
<circle class="st3" cx="386.2" cy="420.6" r="34"/>
<circle class="st3" cx="386.2" cy="518.6" r="34"/>
<path class="st3" d="M651.9,610.6H461.6c-4.4,0-8-3.6-8-8s3.6-8,8-8c0,0,0,0,0,0h190.3c4.4,0,8,3.6,8,8
	C659.9,607,656.3,610.6,651.9,610.6C651.9,610.6,651.9,610.6,651.9,610.6z"/>
<path class="st3" d="M684.9,637.7H461.6c-4.4,0-8-3.6-8-8c0-4.4,3.6-8,8-8h223.4c4.4,0,8,3.6,8,8
	C692.9,634.1,689.4,637.7,684.9,637.7z"/>
<circle class="st3" cx="386.2" cy="616.6" r="34"/>
</svg>
