<?xml version="1.0" encoding="utf-8"?>
<!-- Generator: Adobe Illustrator 23.1.0, SVG Export Plug-In . SVG Version: 6.00 Build 0)  -->
<svg version="1.1" id="Capa_1" xmlns="http://www.w3.org/2000/svg" xmlns:xlink="http://www.w3.org/1999/xlink" x="0px" y="0px"
	 viewBox="0 0 98.4 98.4" style="enable-background:new 0 0 98.4 98.4;" xml:space="preserve">
<style type="text/css">
	.st0{fill:#44BA54;}
</style>
<g>
	<g>
		<path class="st0" d="M97.8,23.1l-7.2-7.2c-0.8-0.8-2-0.8-2.8,0L50.5,53.1L37.2,39.8c-0.8-0.8-2-0.8-2.8,0l-7.2,7.2
			c-0.4,0.4-0.6,0.9-0.6,1.4c0,0.5,0.2,1,0.6,1.4L49,71.9c0.4,0.4,0.9,0.6,1.4,0.6c0.5,0,1-0.2,1.4-0.6l45.9-45.9
			c0.4-0.4,0.6-0.9,0.6-1.4C98.4,24,98.2,23.5,97.8,23.1z"/>
		<path class="st0" d="M73.6,81H10V17.4h65.1l8.5-8c0-1.1-0.9-2-2-2H2c-1.1,0-2,0.9-2,2V89c0,1.1,0.9,2,2,2h79.6c1.1,0,2-0.9,2-2
			V51.1l-10,10.5L73.6,81L73.6,81z"/>
	</g>
</g>
</svg>
