<?xml version="1.0" encoding="utf-8"?>
<!-- Generator: Adobe Illustrator 23.1.0, SVG Export Plug-In . SVG Version: 6.00 Build 0)  -->
<svg version="1.1" id="Capa_1" xmlns="http://www.w3.org/2000/svg" xmlns:xlink="http://www.w3.org/1999/xlink" x="0px" y="0px"
	 viewBox="0 0 35.7 35.7" style="enable-background:new 0 0 35.7 35.7;" xml:space="preserve">
<style type="text/css">
	.st0{fill:#F1F2F6;}
</style>
<g>
	<path class="st0" d="M11.6,10.8c0-3.5,2.8-6.3,6.3-6.3c3.5,0,6.3,2.8,6.3,6.3c0,3.5-2.8,6.3-6.3,6.3C14.4,17.1,11.6,14.2,11.6,10.8
		z M35.7,22.6l-0.9-5.3c-0.2-1-1-1.8-1.9-2c-0.8,0.7-1.9,1.2-3.1,1.2c-1.2,0-2.3-0.5-3.1-1.2c-0.9,0.2-1.7,1-1.9,2l0,0.1
		c-0.5-0.5-1.2-0.9-1.9-1.1c-1.3,1.2-3.1,1.9-5,1.9s-3.7-0.7-5-1.9c-0.7,0.2-1.3,0.5-1.9,1.1l0-0.1c-0.2-1-1-1.8-1.9-2
		c-0.8,0.7-1.9,1.2-3.1,1.2c-1.2,0-2.3-0.5-3.1-1.2c-0.9,0.2-1.7,1-1.9,2L0,22.6c-0.2,1.1,0.6,2.1,1.7,2.1H9l-0.5,3.3
		c-0.3,1.8,0.9,3.3,2.8,3.3h13.3c1.8,0,3.1-1.5,2.8-3.3l-0.5-3.3h7.2C35.1,24.7,35.9,23.7,35.7,22.6z M29.8,15.8c2.2,0,4-1.8,4-4
		c0-2.2-1.8-4-4-4s-4,1.8-4,4C25.8,14,27.6,15.8,29.8,15.8z M5.9,15.8c2.2,0,4-1.8,4-4c0-2.2-1.8-4-4-4c-2.2,0-4,1.8-4,4
		C2,14,3.8,15.8,5.9,15.8z"/>
</g>
</svg>
