<?xml version="1.0" encoding="utf-8"?>
<!-- Generator: Adobe Illustrator 23.1.0, SVG Export Plug-In . SVG Version: 6.00 Build 0)  -->
<svg version="1.1" id="Capa_1" xmlns="http://www.w3.org/2000/svg" xmlns:xlink="http://www.w3.org/1999/xlink" x="0px" y="0px"
	 viewBox="0 0 512 512" style="enable-background:new 0 0 512 512;" xml:space="preserve">
<style type="text/css">
	.st0{fill:#292F53;}
	.st1{fill:#FFFFFF;}
</style>
<path class="st0" d="M76.8,0h358.4C477.6,0,512,34.4,512,76.8v358.4c0,42.4-34.4,76.8-76.8,76.8H76.8C34.4,512,0,477.6,0,435.2V76.8
	C0,34.4,34.4,0,76.8,0z"/>
<path class="st1" d="M335,499c14,0,12,17,12,17H165c0,0-2-17,12-17c13,0,16-6,16-12l-1-50c-71,16-86-28-86-28c-12-30-28-37-28-37
	c-24-16,1-16,1-16c26,2,40,26,40,26c22,39,59,28,74,22c2-17,9-28,16-35c-57-6-116-28-116-126c0-28,10-51,26-69c-3-6-11-32,3-67
	c0,0,21-7,70,26c42-12,86-12,128,0c49-33,70-26,70-26c14,35,6,61,3,67c16,18,26,41,26,69c0,98-60,120-117,126c10,8,18,24,18,48
	l-1,70C319,493,322,499,335,499z"/>
</svg>
